<svg xmlns="http://www.w3.org/2000/svg" width="60" height="30" viewBox="0 0 60 30">
  <defs>
    <style>
      .cls-1 {
        fill-rule: evenodd;
      }
    </style>
  </defs>
  <path id="Bread_icon" data-name="Bread icon" class="cls-1" d="M915.247,2698.13c-0.016-.01-0.031-0.03-0.048-0.04a1.169,1.169,0,0,0-1.222-.03,1.146,1.146,0,0,0-.567,1.08,44.448,44.448,0,0,1-.285,8.93,0.4,0.4,0,0,1-.781.02,51.2,51.2,0,0,0-4.636-13.02,1.115,1.115,0,0,0-.716-0.58,42.253,42.253,0,0,0-8.977-1.47,1.164,1.164,0,0,0-.951.42,1.141,1.141,0,0,0-.235,1,44.108,44.108,0,0,1,.621,13.96,0.4,0.4,0,0,1-.359.35,0.391,0.391,0,0,1-.415-0.28c-0.993-3.44-3.246-10.74-5.476-14.53a1.159,1.159,0,0,0-1.106-.57,26.6,26.6,0,0,0-8.531,1.89h0a0.869,0.869,0,0,0-.734,1.09,41.837,41.837,0,0,1,.057,11.8,0.363,0.363,0,0,1-.38.3,0.412,0.412,0,0,1-.4-0.34,48.765,48.765,0,0,0-2.976-9.48,1.426,1.426,0,0,0-.865-0.8,1.45,1.45,0,0,0-1.17.11c-6.984,4.04-10.1,8.77-10.1,13.6,0,10.26,13.435,11.48,30.008,11.48s30.008-1.22,30.008-11.48C925.007,2707.11,922.239,2702.76,915.247,2698.13Z" transform="translate(-865 -2693.03)"/>
</svg>
