<svg xmlns="http://www.w3.org/2000/svg" width="55" height="55" viewBox="0 0 55 55">
  <defs>
    <style>
      .cls-1 {
        fill-rule: evenodd;
      }
    </style>
  </defs>
  <path id="Calendar" class="cls-1" d="M506.87,2710.34a1.256,1.256,0,0,0-1.277-1.24h-4.455a1.255,1.255,0,0,0-1.276,1.24v4.36a1.263,1.263,0,0,0,1.276,1.25h4.455a1.264,1.264,0,0,0,1.277-1.25v-4.36h0Zm11.134,0a1.256,1.256,0,0,0-1.276-1.24h-4.456a1.256,1.256,0,0,0-1.276,1.24v4.36a1.264,1.264,0,0,0,1.276,1.25h4.456A1.264,1.264,0,0,0,518,2714.7v-4.36Zm11.134,0a1.255,1.255,0,0,0-1.276-1.24h-4.455a1.256,1.256,0,0,0-1.277,1.24v4.36a1.264,1.264,0,0,0,1.277,1.25h4.455a1.263,1.263,0,0,0,1.276-1.25v-4.36Zm-22.268,10.89a1.264,1.264,0,0,0-1.277-1.25h-4.455a1.263,1.263,0,0,0-1.276,1.25v4.36a1.255,1.255,0,0,0,1.276,1.24h4.455a1.256,1.256,0,0,0,1.277-1.24v-4.36h0Zm11.134,0a1.264,1.264,0,0,0-1.276-1.25h-4.456a1.264,1.264,0,0,0-1.276,1.25v4.36a1.256,1.256,0,0,0,1.276,1.24h4.456a1.256,1.256,0,0,0,1.276-1.24v-4.36Zm11.134,0a1.263,1.263,0,0,0-1.275-1.25h-4.456a1.264,1.264,0,0,0-1.277,1.25v4.36a1.256,1.256,0,0,0,1.277,1.24h4.456a1.255,1.255,0,0,0,1.275-1.24v-4.36h0Zm7.967-35.11v6.66a5.5,5.5,0,0,1-5.57,5.43h-3.514a5.53,5.53,0,0,1-5.6-5.43v-6.68H506.582v6.68a5.53,5.53,0,0,1-5.6,5.43h-3.514a5.5,5.5,0,0,1-5.569-5.43v-6.66a5.011,5.011,0,0,0-4.9,4.93v38.99a5.014,5.014,0,0,0,5.042,4.96h44.916a5.016,5.016,0,0,0,5.042-4.96v-38.99A5.011,5.011,0,0,0,537.105,2686.12Zm-1.632,41.49a2.153,2.153,0,0,1-2.18,2.13H495.611a2.153,2.153,0,0,1-2.18-2.13v-20.14a2.16,2.16,0,0,1,2.18-2.13h37.682a2.159,2.159,0,0,1,2.179,2.13v20.14h0Zm-38.02-32.97h3.475a1.886,1.886,0,0,0,1.91-1.87v-10.9a1.892,1.892,0,0,0-1.91-1.87h-3.475a1.892,1.892,0,0,0-1.91,1.87v10.9A1.886,1.886,0,0,0,497.453,2694.64Zm30.524,0h3.475a1.885,1.885,0,0,0,1.909-1.87v-10.9a1.892,1.892,0,0,0-1.909-1.87h-3.475a1.893,1.893,0,0,0-1.911,1.87v10.9A1.886,1.886,0,0,0,527.977,2694.64Z" transform="translate(-487 -2680)"/>
</svg>
