<svg xmlns="http://www.w3.org/2000/svg" width="60" height="50" viewBox="0 0 60 50">
  <defs>
    <style>
      .cls-1 {
        fill-rule: evenodd;
      }
    </style>
  </defs>
  <path id="Cart" class="cls-1" d="M720.873,2728.62a4.351,4.351,0,0,0,1.353,3.21,4.669,4.669,0,0,0,6.527,0,4.5,4.5,0,0,0,0-6.43,4.669,4.669,0,0,0-6.527,0A4.358,4.358,0,0,0,720.873,2728.62Zm13.163-40.25a2.231,2.231,0,0,0-1.623-.67H689.105c-0.025-.17-0.079-0.47-0.163-0.91s-0.15-.79-0.2-1.05a6.278,6.278,0,0,0-.27-0.94,2.776,2.776,0,0,0-.469-0.87,2.289,2.289,0,0,0-1.749-.78h-9.231a2.268,2.268,0,0,0-1.623.67,2.211,2.211,0,0,0,0,3.2,2.24,2.24,0,0,0,1.623.68h7.355l6.383,29.23q-0.072.135-.739,1.35c-0.445.8-.8,1.51-1.064,2.11a3.875,3.875,0,0,0-.4,1.41,2.162,2.162,0,0,0,.685,1.59,2.243,2.243,0,0,0,1.624.68H727.8a2.24,2.24,0,0,0,1.623-.68,2.2,2.2,0,0,0,0-3.19,2.24,2.24,0,0,0-1.623-.68H694.621a6.71,6.71,0,0,0,.866-2.27,3.738,3.738,0,0,0-.09-0.78c-0.061-.29-0.133-0.6-0.217-0.94s-0.138-.6-0.162-0.77l37.648-4.33a2.278,2.278,0,0,0,1.478-.76,2.221,2.221,0,0,0,.577-1.51v-18.19A2.168,2.168,0,0,0,734.036,2688.37Zm-45.473,40.25a4.348,4.348,0,0,0,1.353,3.21,4.669,4.669,0,0,0,6.527,0,4.5,4.5,0,0,0,0-6.43,4.669,4.669,0,0,0-6.527,0A4.354,4.354,0,0,0,688.563,2728.62Z" transform="translate(-674.719 -2683.16)"/>
</svg>
