<svg xmlns="http://www.w3.org/2000/svg" width="15" height="15" viewBox="0 0 15 15">
  <defs>
    <style>
      .cls-1 {
        fill-rule: evenodd;
      }
    </style>
  </defs>
  <path id="Forma_1_копия_7" data-name="Forma 1 копия 7" class="cls-1" d="M1242.8,1105.2a7.484,7.484,0,1,0,2.2,5.3A7.427,7.427,0,0,0,1242.8,1105.2Zm-5.3,11.92a6.62,6.62,0,1,1,6.62-6.62A6.628,6.628,0,0,1,1237.5,1117.12Zm3.58-9.03a0.441,0.441,0,0,0-.62,0l-3.88,3.88-2.04-2.04a0.438,0.438,0,0,0-.62.62l2.35,2.36a0.477,0.477,0,0,0,.31.13,0.457,0.457,0,0,0,.31-0.13l4.19-4.19A0.453,0.453,0,0,0,1241.08,1108.09Z" transform="translate(-1230 -1103)"/>
</svg>
