<svg xmlns="http://www.w3.org/2000/svg" width="60" height="57" viewBox="0 0 60 57">
  <defs>
    <style>
      .cls-1 {
        fill-rule: evenodd;
      }
    </style>
  </defs>
  <path id="Recycable" class="cls-1" d="M1054.91,2697.39l3.75,2.9-3.53,6.7c-1.77,3.08,1.27,6.09,3.2,7.14,1.91,1.03,4.86,1.15,7.62,1.11l4.97-8.03,3.76,2.01-6.52-11.94Zm0.55,16.39,8.06,14.73c1.62,2.04,4.68,2.53,7.85,2.45h8.5v-13.95l-16.13-.11A10.061,10.061,0,0,1,1055.46,2713.78Zm50.73-27.14-4.39,1.84-4.2-6.31c-1.88-3.02-6.01-1.85-7.88-.69-1.83,1.15-3.37,3.65-4.68,6.05l4.7,8.19-3.6,2.28,13.72,0.15Zm-14.76-7.47-16.94-.17c-2.6.41-4.51,2.82-5.98,5.59l-4.12,7.36,12.34,6.76,7.92-13.89A9.957,9.957,0,0,1,1091.43,2679.17Zm0.73,56.83,0.5-4.69,7.62-.58c3.58-.15,4.55-4.29,4.42-6.47-0.12-2.14-1.58-4.69-3.08-6.98l-9.52.09-0.27-4.22-6.79,11.8Zm13.77-9.15,8.36-14.56c0.89-2.45-.31-5.26-2.05-7.88l-4.51-7.13-11.96,7.39,8.45,13.58A9.826,9.826,0,0,1,1105.93,2726.85Z" transform="translate(-1054.59 -2679)"/>
</svg>
