<svg xmlns="http://www.w3.org/2000/svg" width="61" height="61" viewBox="0 0 61 61"><g><g><path d="M43.232 8.876l8.89 8.892-34.355 34.357-8.891-8.891zm15.943-.661c-1.161 1.163-4.02 2.766-6.35 3.238l1.56 1.56a1.76 1.76 0 0 1 0 2.492l-.842.841-8.89-8.89.84-.842a1.76 1.76 0 0 1 2.492 0l1.56 1.56c.473-2.33 2.077-5.188 3.239-6.351a4.52 4.52 0 0 1 6.391 6.392zm-51.72 36.44l8.89 8.89-.841.842a1.76 1.76 0 0 1-2.491 0l-1.558-1.558c-.473 2.329-2.077 5.185-3.239 6.349a4.52 4.52 0 0 1-6.392-6.394c1.162-1.161 4.02-2.764 6.349-3.238l-1.56-1.559a1.76 1.76 0 0 1 0-2.492z"/></g></g></svg>