<svg xmlns="http://www.w3.org/2000/svg" width="40.031" height="62" viewBox="0 0 40.031 62">
  <defs>
    <style>
      .cls-1 {
        fill-rule: evenodd;
      }
    </style>
  </defs>
  <path id="Scissors_icon" data-name="Scissors icon" class="cls-1" d="M911.205,3464.41a0.74,0.74,0,1,1-.753.74A0.745,0.745,0,0,1,911.205,3464.41Zm-17.043,21.54c1.069-3.2,4.008-5.14,6.548-4.31s3.743,4.09,2.674,7.29-4.008,5.14-6.547,4.31a4.111,4.111,0,0,1-2.422-2.15,6.693,6.693,0,0,1-.253-5.14h0Zm20.281-20.59c0.956-2.29,5.674-13.34,7.852-21.07,2.485-8.81,1.976-10.2,1.189-10.29l-15.523,31.36c-3.218,6.78-1.841,7.19-5.2,9.91-2.132,1.73-5.223,3.37-6.775,4.55a9.475,9.475,0,0,0-4.318,5.32,9.245,9.245,0,0,0,.4,7.11,6.763,6.763,0,0,0,3.942,3.44c3.916,1.27,8.033-1.51,9.857-5.95,1.167-2.84.454-10.66,1.207-13.42,0.506-1.86,2.413-4.21,4.123-6.21A14.627,14.627,0,0,0,914.443,3465.36Zm13.449,25.73a4.154,4.154,0,0,1-2.423,2.15c-2.542.82-5.476-1.11-6.55-4.31s0.132-6.47,2.675-7.29,5.479,1.1,6.55,4.3a6.693,6.693,0,0,1-.252,5.15h0ZM911.1,3470.12c1.71,1.99,3.617,4.34,4.123,6.21,0.75,2.76.038,10.57,1.2,13.41,1.824,4.44,5.947,7.22,9.863,5.96a6.831,6.831,0,0,0,3.942-3.44,9.265,9.265,0,0,0,.405-7.12,9.444,9.444,0,0,0-4.312-5.31c-1.552-1.18-4.646-2.83-6.778-4.56-3.359-2.71-1.982-3.13-5.2-9.91L898.822,3434c-0.79.09-1.293,1.48,1.189,10.29,2.178,7.74,6.9,18.78,7.852,21.07A14.747,14.747,0,0,0,911.1,3470.12Z" transform="translate(-891.125 -3434)"/>
</svg>
