<svg xmlns="http://www.w3.org/2000/svg" width="60.031" height="60" viewBox="0 0 60.031 60">
  <defs>
    <style>
      .cls-1 {
        fill-rule: evenodd;
      }
    </style>
  </defs>
  <path id="Seeds" class="cls-1" d="M323.608,2700.22a0.712,0.712,0,0,0,.931-0.89c-1.285-3.95-5.934-5.42-10.256-1.92a18.361,18.361,0,0,1-3.15,2.24c1.5,1.5,3.211,6.51,6.948,7.06,4.117,0.75,7.76-3.29,4.78-5.14a12.8,12.8,0,0,0-6.743-1.92A12.837,12.837,0,0,1,323.608,2700.22Zm18.64-2.81c-7.461-6.04-12.219,3.49-9.261,2.54a12.738,12.738,0,0,1,6.7-.3,12.83,12.83,0,0,0-9.9,4.69,81.625,81.625,0,0,1,.84-9.54c1.994-.07,4.651-1.67,6.11-4.48,2.516-4.49,1.349-9.09.974-11.99-1.966,1.91-10.553-.33-13.957,5.48a7.464,7.464,0,0,0,.515,7.98,0.961,0.961,0,0,0,1.733-.5,9,9,0,0,1,5.615-8.31,17.2,17.2,0,0,0-3.187,6.76c-0.841,3.71-1.721,6.15-2.044,18a2.13,2.13,0,0,0,2.15,2.18,2.154,2.154,0,0,0,1.956-1.37,9.686,9.686,0,0,1,2.694-3.64,5.722,5.722,0,0,0,5.263,1.8c3.721-.55,5.458-5.57,6.948-7.06A18.361,18.361,0,0,1,342.248,2697.41Zm10.968,14.76c-2.332-1.58-4.871-.45-6.037.22l-14.63,10.67h-8.567l-2.141-2.13h7.867c2.366,0,5.016-1.54,5.016-4.27,0-2.91-2.65-4.27-5.016-4.27H326.76c-2.19,0-4.75.19-6.554-.77a12.79,12.79,0,0,0-5.8-1.37,12.386,12.386,0,0,0-8.877,3.63L294,2725.19,306.85,2738l4.283-6.4h20.24a8.83,8.83,0,0,0,5.856-2.22l16.134-14.29A1.86,1.86,0,0,0,353.216,2712.17Z" transform="translate(-294 -2678)"/>
</svg>
