<svg xmlns="http://www.w3.org/2000/svg" width="120" height="9" viewBox="0 0 120 9"><g><g><path fill="#fff" d="M103.684 9.002c-4.321 0-6.522-1.783-8.464-3.357-1.753-1.42-3.139-2.543-6.098-2.543-2.96 0-4.345 1.122-6.099 2.543-1.942 1.574-4.143 3.357-8.464 3.357-4.321 0-6.522-1.783-8.464-3.357-1.753-1.42-3.138-2.543-6.098-2.543S55.653 4.224 53.9 5.645c-1.941 1.574-4.142 3.357-8.464 3.357-4.32 0-6.52-1.783-8.462-3.357-1.753-1.42-3.138-2.543-6.097-2.543-2.96 0-4.345 1.122-6.098 2.543-1.942 1.574-4.143 3.357-8.464 3.357-4.321 0-6.522-1.783-8.464-3.357-1.753-1.42-3.138-2.543-6.098-2.543C.785 3.102 0 2.408 0 1.55 0 .695.785 0 1.752 0c4.32 0 6.522 1.783 8.464 3.357 1.753 1.42 3.138 2.543 6.098 2.543s4.345-1.122 6.098-2.543C24.354 1.783 26.554 0 30.875 0c4.321 0 6.522 1.784 8.464 3.357 1.753 1.42 3.137 2.543 6.096 2.543 2.96 0 4.345-1.122 6.098-2.543C53.475 1.783 55.676 0 59.997 0c4.321 0 6.522 1.783 8.464 3.357C70.214 4.777 71.6 5.9 74.559 5.9c2.96 0 4.345-1.122 6.098-2.543C82.6 1.783 84.8 0 89.122 0c4.32 0 6.522 1.783 8.464 3.357 1.753 1.42 3.138 2.543 6.098 2.543s4.345-1.122 6.1-2.543C111.724 1.783 113.926 0 118.247 0c.967 0 1.752.695 1.752 1.55 0 .858-.785 1.552-1.752 1.552-2.96 0-4.345 1.122-6.1 2.543-1.941 1.574-4.142 3.357-8.464 3.357z"/></g></g></svg>