<svg xmlns="http://www.w3.org/2000/svg" width="120" height="9" viewBox="0 0 120 9">
  <defs>
    <style>
      .cls-1 {
        fill-rule: evenodd;
      }
    </style>
  </defs>
  <path id="Wave_icon" data-name="Wave icon" class="cls-1" d="M844.684,905c-4.321,0-6.522-1.783-8.464-3.357-1.753-1.421-3.139-2.543-6.1-2.543s-4.345,1.122-6.1,2.543c-1.942,1.574-4.143,3.357-8.464,3.357s-6.522-1.783-8.464-3.357c-1.753-1.421-3.138-2.543-6.1-2.543s-4.344,1.122-6.1,2.543c-1.941,1.574-4.142,3.357-8.464,3.357s-6.521-1.783-8.462-3.357c-1.753-1.421-3.138-2.543-6.1-2.543s-4.344,1.122-6.1,2.543c-1.942,1.574-4.143,3.357-8.464,3.357s-6.522-1.783-8.464-3.357c-1.753-1.421-3.138-2.543-6.1-2.543a1.563,1.563,0,1,1,0-3.1c4.321,0,6.522,1.783,8.464,3.357,1.753,1.421,3.138,2.543,6.1,2.543s4.344-1.122,6.1-2.543c1.941-1.574,4.142-3.357,8.463-3.357s6.522,1.783,8.464,3.357c1.753,1.421,3.137,2.543,6.1,2.543s4.345-1.122,6.1-2.543C794.475,897.783,796.676,896,801,896s6.522,1.783,8.464,3.357c1.753,1.421,3.139,2.543,6.1,2.543s4.345-1.122,6.1-2.543C823.6,897.783,825.8,896,830.122,896s6.522,1.783,8.464,3.357c1.753,1.421,3.138,2.543,6.1,2.543s4.345-1.122,6.1-2.543c1.942-1.574,4.143-3.357,8.465-3.357a1.563,1.563,0,1,1,0,3.1c-2.96,0-4.345,1.122-6.1,2.543C851.207,903.219,849.006,905,844.684,905Z" transform="translate(-741 -896)"/>
</svg>
